# xmcd CD database file
#
# Track frame offsets:
#	150
#	23266
#	44981
#	62285
#
# Disc length: 1197 seconds
#
# Revision: 1
# Processed by: cddbd v1.5.1PL0 Copyright (c) Steve Scherf et al.
# Submitted via: Feurio! 1.68 - http://www.feurio.com
#
DISCID=2804ab04
DTITLE=Zarathustra - Contempt
DYEAR=2005
DGENRE=Black Metal
TTITLE0=Slave morality
TTITLE1=Become eternal
TTITLE2=Master morality
TTITLE3=Of serpents and swords
EXTD=
EXTT0=
EXTT1=
EXTT2=
EXTT3=
PLAYORDER=
